<svg xmlns="http://www.w3.org/2000/svg" xmlns:xlink="http://www.w3.org/1999/xlink" width="347.468" height="127.418" viewBox="0 0 347.468 127.418">
  <defs>
    <linearGradient id="linear-gradient" x1="20.616" y1="45.026" x2="20.021" y2="44.252" gradientUnits="objectBoundingBox">
      <stop offset="0"/>
      <stop offset="1"/>
    </linearGradient>
    <linearGradient id="linear-gradient-2" x1="14.889" y1="45.846" x2="15.442" y2="45.268" xlink:href="#linear-gradient"/>
    <linearGradient id="linear-gradient-3" x1="53.656" y1="68.912" x2="53.415" y2="68.098" xlink:href="#linear-gradient"/>
    <linearGradient id="linear-gradient-4" x1="54.636" y1="67.275" x2="54.537" y2="66.557" xlink:href="#linear-gradient"/>
    <linearGradient id="linear-gradient-5" x1="28.529" y1="20.651" x2="27.463" y2="21.064" xlink:href="#linear-gradient"/>
    <linearGradient id="linear-gradient-6" x1="10.098" y1="45.394" x2="10.368" y2="46.163" xlink:href="#linear-gradient"/>
    <linearGradient id="linear-gradient-7" x1="7.392" y1="21.712" x2="7.617" y2="22.211" xlink:href="#linear-gradient"/>
    <linearGradient id="linear-gradient-8" x1="28.537" y1="-90.457" x2="29.537" y2="-90.457" gradientUnits="objectBoundingBox">
      <stop offset="0"/>
      <stop offset="0.933"/>
      <stop offset="1"/>
    </linearGradient>
  </defs>
  <g id="logo" transform="translate(-26.356 -85.52)">
    <path id="Path_1" data-name="Path 1" d="M26.356,132.66l15.507,26.177,6.191-5.9L31.177,127.763Z" fill="url(#linear-gradient)"/>
    <path id="Path_2" data-name="Path 2" d="M256.6,112.086l-.6,3.451,7.419-2.394-.927-4.226Z" fill="#0071b9"/>
    <path id="Path_3" data-name="Path 3" d="M213.385,88.52l-23.866,27.367,6.945-2,22.721-28.37Z" fill="url(#linear-gradient-2)"/>
    <path id="Path_4" data-name="Path 4" d="M341.056,125.939l5.859-3.123-1.675,14.669Z" fill="#1d2c5e"/>
    <path id="Path_5" data-name="Path 5" d="M304.647,135.346l5.207,1.065,6.647-3.226-5.769-2.152Z" fill="#1d2c5e"/>
    <path id="Path_6" data-name="Path 6" d="M125.127,119.77l.833,17,7.266-2.937-2.174-17.24Z" fill="url(#linear-gradient-3)"/>
    <path id="Path_7" data-name="Path 7" d="M310.282,114.7l-5.849,3.157.214,17.492,5.889-3.018,1.847-8.466Z" fill="url(#linear-gradient-4)"/>
    <path id="Path_8" data-name="Path 8" d="M309.479,136.46l-6.441,57.213,10.3-2.03,2.015-58.268Z" fill="#312370"/>
    <path id="Path_9" data-name="Path 9" d="M322.088,196.416l.182,7.759,19.765,6.3,5.882-3.117-19.394-15.025L308.88,190.6l-5.842,3.068Z" fill="#21386e"/>
    <path id="Path_10" data-name="Path 10" d="M248.766,182.77l4.857-2.616,3.1,5.719,4.578-2.516.912,7.543,28.734,5.094,5.742-3.157-39.623-24.144-28.107,4.819-5.484,5.211Z" fill="#21386e"/>
    <path id="Path_11" data-name="Path 11" d="M239.616,112.377l-5.753,3.166-10.392,63.18,5.821-3.024,9.975-35.475Z" fill="url(#linear-gradient-5)"/>
    <path id="Path_12" data-name="Path 12" d="M193.714,120.846l-4.582,2.44.384,1.529,10.907-6.928-4.767-5.116-6.137,3.116Z" fill="#1d2c5e"/>
    <path id="Path_13" data-name="Path 13" d="M206.243,195.476l-46.858-23.212,5.882-4.448,46.808,24.51Z" fill="#21386e"/>
    <path id="Path_14" data-name="Path 14" d="M163.788,109.088l-7.1,13.467,7.5-2.273,5.414-14.349Z" fill="#1d2c5e"/>
    <path id="Path_15" data-name="Path 15" d="M99.382,164.717l-5.99,4.113a95.475,95.475,0,0,0,2.91,11.334,24.923,24.923,0,0,0,5.571,8.414,21.5,21.5,0,0,0,9.052,5.262,25.346,25.346,0,0,0,20.526-3.432,38.742,38.742,0,0,0,5.357-4.1c-6.309,3.83-37.426-21.587-37.426-21.587Z" fill="url(#linear-gradient-6)"/>
    <path id="Path_16" data-name="Path 16" d="M131.442,135.382,136.91,195.7l22.339-3.306,5.975-3.132L137.5,131.767l-5.7,1.922-5.84,3.08Z" fill="#1d2c5e"/>
    <path id="Path_17" data-name="Path 17" d="M47.7,156.332l24.96,56.606,23.71-7.651,5.791-3.891L52.941,149.9l-6.159,3.689-4.919,5.245Z" fill="url(#linear-gradient-7)"/>
    <path id="Path_18" data-name="Path 18" d="M295.054,183.039l.336,2.777a27.555,27.555,0,0,0,6.024-1.146c2.141-.733,6.79-2.806,8.558-4.329-.662.241-11.556,3.065-14.918,2.7" fill="#1d2c5e"/>
    <path id="Path_19" data-name="Path 19" d="M211.164,168.584l.891,4.476a34.6,34.6,0,0,0,12.969-4.925c2.541-1.514,5.332-3.8,6.213-4.406-.623.4-20.073,4.855-20.073,4.855Z" fill="#1d2c5e"/>
    <g id="Group_1" data-name="Group 1" transform="translate(-5.451 -1.686)">
      <path id="Path_20" data-name="Path 20" d="M84.6,209.256l-1.854-4.117L59.078,152.324l-.486-1.083-1.075.5-.719.33-4.212,2.068c-.622-1.041-1.653-2.789-2.37-4l-9.525-16.1-2.491-4.2,4.121-2.612a90.485,90.485,0,0,1,13.09-6.827,72.984,72.984,0,0,1,28.143-6.211,49.249,49.249,0,0,1,8.4.7,26.974,26.974,0,0,1,11.9,4.208,26.133,26.133,0,0,1,11.241,12.353,23.153,23.153,0,0,1,1.029,14.382l-.686,3.032,2.52-1.826a29.114,29.114,0,0,1,5.479-3.128,26.348,26.348,0,0,1,10.3-2.141,22.363,22.363,0,0,1,9.245,1.932l1.834.822-.184-2-.8-8.653-.128-1.373-1.336.348-4.011,1.039-.7-14.734,29.367-9.383-.237,11.452,2.212.568,6.413-12.292,19.207,17.037.8.712.781-.734a30.129,30.129,0,0,1,9.27-5.9l1.471-.6-1.008-1.229-3.463-4.222,22.053-25.42,11.55,17.234-17.68,9.5-3.926,2.112,4.457.1a27.168,27.168,0,0,1,20.9,9.983l1.842,2.271,1.187,1.458-1.971,2.092-1.313,1.4-4.418,4.712-.822.875.891.8,4.14,3.727,1.6,1.441.342-2.125,1.59-9.836.4-2.525.014.015.417-2.579,2.372-14.519h22.163l.167-.979.414-2.486H287.9l4.618,29.169.3,1.889,1.549-1.123a26.661,26.661,0,0,1,6.146-3.322,25.411,25.411,0,0,1,8.984-1.675,21.965,21.965,0,0,1,10.1,2.4,1.57,1.57,0,0,0,.349.194l1.434.576.169-1.537.345-3.179.114-1.042-1.026-.228-3.863-.864-.188-15.205,29.475,6.486,2.213,10.941,2.288.045,2.283-9.416,24.577,5.977-25.115,75.7-17.974-5.644-.127-6.974-.018-1-.992-.139-17.936-2.529,1.017-9.117.241-2.168-1.94.994a24.626,24.626,0,0,1-2.65,1.17,25.17,25.17,0,0,1-8.926,1.67,22.776,22.776,0,0,1-2.58-.144l-1.531-.171.239,1.521,1.264,8.018-26.164-4.613-1.371-11.9-.441-3.813L271,176.152l-3.012,5.81-5.547-10.238-1.667-3.075-.525,3.455-1.209,7.926-22.935-3.608,1.778-10.877.4-2.494-2.167,1.3a46.551,46.551,0,0,1-13.175,5.177,36.035,36.035,0,0,1-5.553.9l-1.075.09v21.6L171.162,169.8l-1.7-.836v1.891l.031,19.09-20.192,2.977-.849-9.168-.229-2.453-1.761,1.728a28.944,28.944,0,0,1-8.932,6.019,26.035,26.035,0,0,1-10.22,2.133,22.078,22.078,0,0,1-9.612-2.125,20.813,20.813,0,0,1-11.052-13.359,22.21,22.21,0,0,1-.646-8.837l.4-3.25-2.37,2.256a56.883,56.883,0,0,1-5.354,4.493l-.638.47.2.769,6.8,26.108,1.2,4.634-4.556,1.447-12.807,4.1L84.6,209.256Zm5.748-70.09a11.37,11.37,0,0,0-2.03.185l-.871.167-1.286.248.388,1.253.253.814,3.662,11.983.367,1.151.544,1.729,1.354-1.205.9-.8c3.55-3.189,4.794-6.428,4.045-10.513a5.934,5.934,0,0,0-3.46-4.183,8.883,8.883,0,0,0-3.865-.828Zm98.173.394-2.29,2.229-6.027,5.858-1.313,1.276,1.708.66,6.465,2.5,1.985.765-.41-2.086a27.741,27.741,0,0,1-.423-8.016l.305-3.182Zm26.326-6.662a9.055,9.055,0,0,0-7.9,13.4l.491.922.791,1.475,1.113-1.247.715-.792,8.843-10.1.7-.8,1.115-1.282-1.59-.589-.993-.366a8.989,8.989,0,0,0-3.28-.62Z" fill="#ffcb05"/>
    </g>
    <path id="Path_21" data-name="Path 21" d="M222.919,146.166a1.467,1.467,0,0,0-.231.268c.09-.082.177-.152.269-.227Z" fill="#7d7f68"/>
    <path id="Path_22" data-name="Path 22" d="M230.544,139.1l4.416-4.712-1.511,1.6.044-.2-1.336,1.409-4.412,4.7,4.134,3.719.748-4.631,2.058,1.842Z" fill="#7d7f68"/>
    <path id="Path_23" data-name="Path 23" d="M230.544,139.1l4.141,3.726L236.271,133l-1.311,1.4Z" fill="#7d7f68"/>
    <path id="Path_24" data-name="Path 24" d="M175.565,146.8l.068.027Z" fill="#7d7f68"/>
    <path id="Path_25" data-name="Path 25" d="M200.016,150.889c.354.357.027.1.423.371l2.7-1.9a11.028,11.028,0,0,1-1.163-.928c-3.92-3.571-2.9-11.6-.358-16-6.693,5.4-6.347,13.713-1.6,18.464" fill="#c7a008"/>
    <path id="Path_26" data-name="Path 26" d="M232.627,155.386c-4.462,3.69-9.547,6.1-16.267,7.72a31.521,31.521,0,0,1-4.315.705c-10.665,1.049-19.613-3.849-23.008-11.791a17.041,17.041,0,0,1-.995-2.975,21.025,21.025,0,0,1,3.074-17.354c.328-.455.672-.889,1.033-1.331-.168.144-.341.268-.481.4a21.864,21.864,0,0,0-3.351,3.725,20.948,20.948,0,0,0-3.064,17.346,16.731,16.731,0,0,0,.978,2.968c3.4,7.961,12.348,12.854,23,11.815a30.713,30.713,0,0,0,4.323-.728c6.729-1.623,11.81-4.021,16.271-7.709a35.546,35.546,0,0,0,3.16-2.942l-.1-.09c-.1.088-.177.165-.265.238" fill="#c7a008"/>
    <path id="Path_27" data-name="Path 27" d="M157.467,135.164l11.915-16.745-.485-.447-11.5,16.15Z" fill="#c7a008"/>
    <path id="Path_28" data-name="Path 28" d="M236.271,133l-1.586,9.833-2.058-1.842-.748,4.631-4.134-3.719,4.412-4.7,1.336-1.409-.044.2,1.511-1.6Z" fill="#c7a008"/>
    <path id="Path_29" data-name="Path 29" d="M221.547,105.416l4.172-1.79-7.626-9.788-2.5,3.49Z" fill="#c7a008"/>
    <path id="Path_30" data-name="Path 30" d="M106.025,129.666c-19.259-23.462-53.962-10.851-66.435.123l.487.842a81.74,81.74,0,0,1,9.071-4.468c12.391-5.292,24.2-6.844,33.671-5.187a22.481,22.481,0,0,1,9.979,3.442,21.3,21.3,0,0,1,9.4,10.156c3.357,7.724.4,17.995-7.512,26.592C104.614,152.064,111.4,143.352,106.025,129.666Z" fill="#c7a008"/>
    <path id="Path_31" data-name="Path 31" d="M145.317,157a11.552,11.552,0,0,0-.318-1.273,16.041,16.041,0,0,0-6.47-9.086c-4.943-3.358-11.844-4.048-18.722-1.145a25.9,25.9,0,0,0-9.253,6.848,25.38,25.38,0,0,1,6.46-4.038c6.861-2.913,13.763-2.225,18.724,1.129a16.18,16.18,0,0,1,6.475,9.083c.122.418.218.855.313,1.3a19.34,19.34,0,0,1,.374,4.518,23.666,23.666,0,0,1-4.577,12.873q-.664.9-1.4,1.744a25.683,25.683,0,0,0,4.185-4.551,23.494,23.494,0,0,0,4.587-12.882,18.3,18.3,0,0,0-.377-4.517" fill="#c7a008"/>
    <path id="Path_32" data-name="Path 32" d="M126.353,151.273c-.025.043,2.794-2.8,2.763-2.8-3.528-.135-5.021,3.193-5.144,3.455a6.985,6.985,0,0,1,2.381-.659" fill="#c7a008"/>
    <path id="Path_33" data-name="Path 33" d="M133,155.341a5.016,5.016,0,0,1-.242,3.566c.563-.295,4.645-2.273,3.063-6.467.084.126-2.924,2.888-2.821,2.9" fill="#c7a008"/>
    <path id="Path_34" data-name="Path 34" d="M116.947,157.674c0-1.725,2.954-5.91,3.875-7.307-4.664,2.965-6.674,6.969-6.674,10.122,0,5.4,4.747,9.744,10.421,9.744a13.265,13.265,0,0,0,10.818-6.623c-1.686,1.108-5.97,3.764-8.216,3.764a9.91,9.91,0,0,1-10.224-9.7" fill="#c7a008"/>
    <path id="Path_35" data-name="Path 35" d="M156.885,162.619l.073,21.861,3.47.2-.687-24.923Z" fill="#c7a008"/>
    <path id="Path_36" data-name="Path 36" d="M136.968,121l.07,1.941,16.444-4.9,1.22,20.94,2.743-3.844-.586-21.014Z" fill="#c7a008"/>
    <path id="Path_37" data-name="Path 37" d="M186.677,128.493l-15.446-14.176-1.849,4.1,13.594,12.771Z" fill="#c7a008"/>
    <path id="Path_38" data-name="Path 38" d="M184.33,154.912l-18.137-6-2.642,2.79,18.066,7.23a25.187,25.187,0,0,0,9.063,9.586,29.654,29.654,0,0,0,12.689,4.141v8.924l2.8,1.4.887-13.4L184.33,154.912Z" fill="#c7a008"/>
    <path id="Path_39" data-name="Path 39" d="M213.45,152.39a16.716,16.716,0,0,0,9.232-5.956c-1.659,1.361-9.978,3.175-11.376,3.648L208.566,153a17.781,17.781,0,0,0,4.884-.61" fill="#c7a008"/>
    <path id="Path_40" data-name="Path 40" d="M205.35,121.552c-8.213,1.075-12.493,7.97-13.2,8.81a26.718,26.718,0,0,1,11.116-5.478c10.161-2.458,19.122.641,24.66,7.487l3.428-2.9c-5.485-6.728-15.843-10.368-26-7.918" fill="#c7a008"/>
    <path id="Path_41" data-name="Path 41" d="M232.893,155.148c.991-.832,2.752-1.675,3.688-2.656l-11-9.826c-.841,1.007-1.6,2.666-2.633,3.54l9.942,8.942Z" fill="#c7a008"/>
    <path id="Path_42" data-name="Path 42" d="M289.325,181.479c-11.536-9.48-10.847-29.814-5.184-36.267l-5.083-31.869-11.117,1.436-.495,2.807h8.411l4.456,28.915c-5.668,6.473-8.407,15.142-6.513,23.079a21.031,21.031,0,0,0,10.656,13.971c.546.3,1.108.561,1.687.807l.071.424,3.307.521s.347-3.548-.2-3.824Z" fill="#c7a008"/>
    <path id="Path_43" data-name="Path 43" d="M244.983,118.033l-.476,2.809h12.679l3.736,20.478,2.813-2.842-2.958-21.618Z" fill="#c7a008"/>
    <path id="Path_44" data-name="Path 44" d="M266.691,157.787,262.6,168.363l1.014,2.752,5.856-16.106Z" fill="#c7a008"/>
    <path id="Path_45" data-name="Path 45" d="M254.533,151.125l-2.817,2.816-3.023,19.1,2.894,1.107Z" fill="#c7a008"/>
    <path id="Path_46" data-name="Path 46" d="M311.485,145.024a14.875,14.875,0,0,1,4.142,4.468,15.738,15.738,0,0,1,1.882,4.583c1.382,5.74-.271,11.951-3.921,16.934-.368.507-.771.995-1.158,1.475,1.481-1.275,19.494-14.561,1.9-32.01-19.354-6.38-26.683,6.247-27.365,7.048a24.115,24.115,0,0,1,6.96-4.153c6.548-2.482,12.993-1.622,17.564,1.655" fill="#c7a008"/>
    <path id="Path_47" data-name="Path 47" d="M301.728,146.282c.055.123,2.778-2.839,2.833-2.839-3.442.142-5.1,1.8-4.927,2.571a4.7,4.7,0,0,0-.507.919,8.109,8.109,0,0,1,2.6-.651" fill="#c7a008"/>
    <path id="Path_48" data-name="Path 48" d="M308.2,150.611a5.166,5.166,0,0,1,.172,1.465,5.05,5.05,0,0,1-.456,1.844c.523-.235,4.7-1.531,3.1-6.125.04.131-2.866,2.818-2.82,2.816" fill="#c7a008"/>
    <path id="Path_49" data-name="Path 49" d="M299.06,165.2c3.9.166,8.2-2.228,11.293-6.457-7.928,1.627-16.262-11.575-15.426-12.868-3,2.172-5.646,6.36-5.768,9.288-.2,5.426,4.213,9.81,9.9,10.037" fill="#c7a008"/>
    <path id="Path_50" data-name="Path 50" d="M342.5,199.591l1.857,1.244,22.679-68.064-16.973-3.923-.213,3.987,13.692,3.037Z" fill="#c7a008"/>
    <path id="Path_51" data-name="Path 51" d="M315.57,121.552l.149,3.8,18.045,3.624,6.948,32.949,2.813-2.833-6.62-33.289Z" fill="#c7a008"/>
    <path id="Path_52" data-name="Path 52" d="M329.458,159.1l-4.969,28.1,2.861.927,4.932-31.794Z" fill="#c7a008"/>
    <path id="Path_53" data-name="Path 53" d="M95.271,197.51l-8.44-30.6-3.09,2.16,7.823,29.319Z" fill="#c7a008"/>
    <path id="Path_54" data-name="Path 54" d="M93.081,151.492a64.339,64.339,0,0,1-8.723,7.664l-1.494-4.795-3.27-10.512-2.078-7.118-2.027,2.6,2.07,7.127,3.271,10.5,1.486,4.81c3.366-2.17,8.265-6.24,10.765-10.283" fill="#c7a008"/>
    <path id="Path_55" data-name="Path 55" d="M212.68,133.4c-2.663-1.025-6.438-.716-8.475,1.513a15.376,15.376,0,0,0-1.687,2.426,8.954,8.954,0,0,1,7.785-1.077Z" fill="#7d7f68"/>
    <path id="Path_56" data-name="Path 56" d="M90.645,142.893a5.1,5.1,0,0,0-2.6-3.169,10.058,10.058,0,0,0-5.4-.443c.308,1.06.658,2.3.809,2.812a10.823,10.823,0,0,1,2.427.575,4.1,4.1,0,0,1,2.363,2.795,8.408,8.408,0,0,1-.581,5.693c2.416-2.37,3.588-4.948,2.974-8.263" fill="#7d7f68"/>
    <g id="Group_3" data-name="Group 3" transform="translate(-5.451 -1.686)">
      <g id="Group_2" data-name="Group 2">
        <path id="Path_57" data-name="Path 57" d="M100.326,144.535c-1.16-6.221-9.293-9.648-17.358-5.25l2.079,7.119,3.27,10.521,1.492,4.793c6.049-3.892,12.131-8.567,10.517-17.183ZM92.314,154.1c-.88-2.875-2.812-9.08-2.812-9.08.009.029-.38-1.328-.843-2.88a7.724,7.724,0,0,1,4.705.467,4.04,4.04,0,0,1,2.374,2.791c.67,3.577-.537,6.129-3.424,8.7Z" fill="#3c5aa6"/>
      </g>
    </g>
    <g id="Group_5" data-name="Group 5" transform="translate(-5.451 -1.686)">
      <g id="Group_4" data-name="Group 4">
        <path id="Path_58" data-name="Path 58" d="M222.353,134.666a11.055,11.055,0,1,0-14.924,16.314,9.964,9.964,0,0,0,1.165.931l14.54-16.468q-.376-.4-.781-.777Zm-13.73,11.582a7.136,7.136,0,0,1,8.843-10.083l-8.843,10.083Z" fill="#3567b0"/>
      </g>
    </g>
    <path id="Path_59" data-name="Path 59" d="M236.331,131.171l-8.051,7.759,7.649,6.87Z" fill="#1e2d5f"/>
    <path id="Path_60" data-name="Path 60" d="M311,147.795a5.315,5.315,0,0,1,.17,1.487c-.134,3.076-3.026,5.451-6.475,5.291-3.444-.119-6.152-2.732-6.017-5.8a5.853,5.853,0,0,1,5.845-5.3,10.062,10.062,0,0,0-1.884-.229c-5.769-.249-10.48,3.836-10.681,8.92-.223,5.439,4.138,9.873,9.813,10.119,5.776.23,10.488-3.867,10.717-9.28A8.89,8.89,0,0,0,311,147.795" fill="#3466af"/>
    <path id="Path_61" data-name="Path 61" d="M136.029,154.006c0,3.089-2.811,5.564-6.252,5.564s-6.25-2.478-6.25-5.564a5.847,5.847,0,0,1,5.619-5.529,10.593,10.593,0,0,0-1.884-.172c-5.766,0-10.315,4.277-10.315,9.37a9.9,9.9,0,0,0,10.225,9.7c5.771,0,10.316-4.266,10.316-9.7a8.643,8.643,0,0,0-1.69-5.112,4.647,4.647,0,0,1,.231,1.443" fill="url(#linear-gradient-8)"/>
    <g id="Group_7" data-name="Group 7" transform="translate(-5.451 -1.686)">
      <g id="Group_6" data-name="Group 6">
        <path id="Path_62" data-name="Path 62" d="M352.327,124.487l-2.563,10.555L347.4,123.355l-31.668-6.971.223,17.609,4.771,1.07-.345,3.176a.463.463,0,0,1-.134-.089,24.582,24.582,0,0,0-20.152-.834,27.828,27.828,0,0,0-6.416,3.466L288.9,110.624H267.841l-.579,3.468H245.094l-2.531,15.5-1.838-2.27a28.363,28.363,0,0,0-21.786-10.416l18.821-10.115L224.636,87.208l-23.711,27.323,4.093,4.99a31.271,31.271,0,0,0-9.629,6.127L175.056,107.61l-7.107,13.625.272-13.094L136.435,118.3l.815,17.078,5.407-1.4.8,8.655a25.7,25.7,0,0,0-20.494.2,30.245,30.245,0,0,0-5.7,3.254,24.208,24.208,0,0,0-1.1-15.106,27.19,27.19,0,0,0-11.667-12.86,27.95,27.95,0,0,0-12.34-4.387c-11-1.923-24.208.051-37.207,5.589a91.692,91.692,0,0,0-13.258,6.914l-5.08,3.222,3.068,5.182,9.523,16.1s2.914,4.932,2.934,4.928l5.15-2.531L58,152.8,81.67,205.62l2.283,5.077,5.284-1.7,12.805-4.1,5.611-1.785-1.481-5.712-6.8-26.1a56.975,56.975,0,0,0,5.467-4.592,23.562,23.562,0,0,0,.678,9.3,21.945,21.945,0,0,0,11.674,14.1,25.3,25.3,0,0,0,20.8.021,30.265,30.265,0,0,0,9.293-6.26l.966,10.4,22.423-3.3-.036-20.1L217.493,194V171.58a36.962,36.962,0,0,0,5.728-.929,47.606,47.606,0,0,0,13.5-5.308l-1.967,12.043,25.263,3.976,1.387-9.091,6.6,12.188,4.034-7.771,1.474,12.76,28.644,5.05-1.52-9.636a25.942,25.942,0,0,0,12.046-1.59,25.618,25.618,0,0,0,2.772-1.231l-1.143,10.254,19.063,2.688.142,7.819,19.879,6.238,25.881-78.006-26.948-6.547ZM240.411,136.08l1.313-1.4-1.587,9.834L236,140.789ZM223.624,95.9l6.94,9.428-19.842,9.836-1.37-2.083L223.624,95.9ZM92.243,168.6l7.916,30.375-12.813,4.093-26.29-58.715c-1.431.752-4.07,2.012-6.5,3.2l-9.52-16.082a82.794,82.794,0,0,1,12.353-6.426c12.4-5.272,24.221-6.845,33.679-5.174a22.547,22.547,0,0,1,9.99,3.422,21.349,21.349,0,0,1,9.391,10.154c4.58,10.583-3.07,25.81-18.209,35.152Zm58.9-5.4a23.5,23.5,0,0,1-4.587,12.887,25.659,25.659,0,0,1-10.686,8.639c-11.115,4.709-22.231,0-25.2-10.553-2.876-10.2,3.817-22.351,14.587-26.991,6.878-2.9,13.778-2.215,18.722,1.145a16.061,16.061,0,0,1,6.471,9.087,11.9,11.9,0,0,1,.316,1.274,18.38,18.38,0,0,1,.377,4.512Zm60.478,21.472-46.491-23.252.082,24.362-12.027,1.64-.837-10.041c3.713-6.367,5.071-13.871,3.133-20.752a21.78,21.78,0,0,0-5.7-9.7l-1.726-20.475-5.4,1.4-.238-5.178,19.313-5.751,1.186,19.92,14.227-19.99L191.057,130.1,171.606,150.6l18.274,7.229a25.1,25.1,0,0,0,9.063,9.577,29.571,29.571,0,0,0,12.683,4.161Zm-24.14-33.688-6.467-2.495,6.029-5.859a28.857,28.857,0,0,0,.438,8.354Zm50.594,6.092c-4.462,3.69-9.547,6.1-16.267,7.72a31.518,31.518,0,0,1-4.315.7c-10.665,1.049-19.613-3.849-23.008-11.791a17.039,17.039,0,0,1-.995-2.975,20.887,20.887,0,0,1,6.425-21.089,26.7,26.7,0,0,1,11.6-5.882c10.159-2.45,19.107.651,24.594,7.382L216.757,151.75a13.961,13.961,0,0,0,4.941-.466c4.608-1.125,7.188-3.573,9.464-6.238l7.736,6.96,2.344,2.118a41.673,41.673,0,0,1-3.164,2.948Zm41.073,27.5-4.211-27.9-5.956,15.392-8.918-19.235h-.1l-3.524,22.274L241.58,172.52l2.089-12.431q.846-.788,1.655-1.613l4.817-4.963-4.682-4.192,4.974-29.6h15l3.753,20.493,4.207-23.748h10.728l4.451,28.932c-5.664,6.452-8.416,15.127-6.522,23.063a21.119,21.119,0,0,0,10.663,14c.545.273,1.11.547,1.693.781l.565,3.75-15.817-2.418Zm37.039-9.09a23.1,23.1,0,0,1-5.382,2.875,20.032,20.032,0,0,1-11.027,1.087,16.439,16.439,0,0,1-6.4-2.725,15.961,15.961,0,0,1-6.15-9.348,19.958,19.958,0,0,1,2.5-14.439,25.984,25.984,0,0,1,4.9-6.046,24.464,24.464,0,0,1,7.53-4.643c6.555-2.446,13.02-1.6,17.567,1.669a15.381,15.381,0,0,1,4.158,4.452,15.928,15.928,0,0,1,1.865,4.582c1.394,5.773-.266,11.958-3.907,16.939a25.065,25.065,0,0,1-5.657,5.6Zm33.469,26.3-10.991-3.273-.958-40.522-5.528,31.26-11.99-1.913.858-9c7.829-6.616,11.98-17.053,9.7-26.511a20.773,20.773,0,0,0-6.188-10.607l1.014-10.614-4.533-1.208.3-5.667,20.659,4.151,6.946,32.94,7.124-29.531,15.716,3.472-22.136,67.024Z" fill="#3564ad"/>
      </g>
    </g>
    <g id="Group_8" data-name="Group 8" transform="translate(14.793 6.43)">
      <path id="Path_63" data-name="Path 63" d="M338.446,197.5v-3.059H337.3v-.41h2.75v.41h-1.147V197.5h-.459Z"/>
      <path id="Path_64" data-name="Path 64" d="M340.512,197.5v-3.467h.691l.819,2.456c.076.228.131.4.166.515q.061-.19.186-.557l.83-2.414h.619V197.5h-.443v-2.9l-1.009,2.9h-.414l-1-2.95v2.95h-.443Z"/>
    </g>
  </g>
</svg>
